# xmcd CD database file
# Copyright (C) 1993-1998 Ti Kan
#
# Track frame offsets:
#	150
#	24820
#	40890
#	55782
#	69355
#	85130
#	99325
#	116325
#	126830
#	142437
#	160262
#	174387
#	188612
#	201012
#	213115
#
# Disc length: 2999 seconds
#
# Revision: 1
# Processed by: cddbd v1.4b41PL1 Copyright (c) Steve Scherf et al.
# Submitted via: CDValet v3.31 - Copyright (c) 1997 Greg Leichner
#
DISCID=c20bb50f
DTITLE=Pink Anderson and Rev. Gary Davis - Gospel, Blues and Stre
DTITLE=et Songs
DYEAR=1900
DGENRE=
TTITLE0=John Henry
TTITLE1=Every Day In The Week
TTITLE2=The Ship Titanic
TTITLE3=Greasy Greens
TTITLE4=Wreck Of The Old 97
TTITLE5=I've Got Mine
TTITLE6=He's In The Jailhouse Now
TTITLE7=Blow, Gabriel
TTITLE8=Twelve Gates To The City
TTITLE9=Samson And Delilah
TTITLE10=Oh Lord, Search My Heart
TTITLE11=Get Right Church
TTITLE12=You Got To Go Down
TTITLE13=Keep Your Lamp Trimmed And Burning
TTITLE14=There Was A Time That I Was Blind
EXTD=Riverside Records Cat. #OBCCD-524-2 (RLP-148)
EXTT0=
EXTT1=
EXTT2=
EXTT3=
EXTT4=
EXTT5=
EXTT6=
EXTT7=
EXTT8=
EXTT9=
EXTT10=
EXTT11=
EXTT12=
EXTT13=
EXTT14=
PLAYORDER=
